<svg width="44" height="44" viewBox="0 0 44 44" fill="none" xmlns="http://www.w3.org/2000/svg">
<g clip-path="url(#clip0_185_3678)">
<path d="M29 13H15C13.9 13 13 13.9 13 15V29C13 30.1 13.9 31 15 31H29C30.1 31 31 30.1 31 29V15C31 13.9 30.1 13 29 13ZM23.03 17.06L24.09 16L25.5 17.41L26.91 16L27.97 17.06L26.56 18.47L27.97 19.88L26.91 20.94L25.5 19.54L24.09 20.95L23.03 19.89L24.44 18.48L23.03 17.06ZM16.25 17.72H21.25V19.22H16.25V17.72ZM21.5 26H19.5V28H18V26H16V24.5H18V22.5H19.5V24.5H21.5V26ZM28 27.25H23V25.75H28V27.25ZM28 24.75H23V23.25H28V24.75Z" fill="#697D94"/>
</g>
<defs>
<clipPath id="clip0_185_3678">
<rect width="24" height="24" fill="white" transform="translate(10 10)"/>
</clipPath>
</defs>
</svg>
