<svg width="35" height="36" viewBox="0 0 35 36" fill="none" xmlns="http://www.w3.org/2000/svg">
<path opacity="0.2" d="M34.4752 22.2337C32.1378 31.6088 22.6419 37.3138 13.2657 34.9764C3.89392 32.6391 -1.81162 23.1431 0.526266 13.7686C2.86252 4.39244 12.3579 -1.31366 21.7313 1.02369C31.107 3.36103 36.812 12.8581 34.4746 22.2337H34.4752Z" fill="#F7931A"/>
<path fill-rule="evenodd" clip-rule="evenodd" d="M25.5329 15.2465C25.8842 12.8944 24.0933 11.63 21.6446 10.7864L22.4389 7.60025L20.4989 7.1169L19.7255 10.2191C19.2162 10.0921 18.6926 9.97222 18.1722 9.85346L18.9511 6.73078L17.0127 6.24744L16.2178 9.43253C15.7958 9.33642 15.3815 9.24141 14.9794 9.14142L14.9816 9.13148L12.3069 8.46364L11.791 10.5351C11.791 10.5351 13.23 10.8649 13.1996 10.8853C13.9851 11.0814 14.1276 11.6012 14.1033 12.0133L13.1985 15.6431C13.2526 15.6569 13.3228 15.6768 13.4001 15.7077L13.1957 15.6569L11.9269 20.7417C11.8307 20.9803 11.5871 21.3383 11.0381 21.2024C11.0574 21.2305 9.62835 20.8505 9.62835 20.8505L8.66553 23.0711L11.19 23.7003C11.4748 23.7717 11.7562 23.8451 12.0345 23.9177L12.0348 23.9178L12.0351 23.9178C12.2153 23.9649 12.3943 24.0116 12.5721 24.0571L11.7694 27.2804L13.7067 27.7637L14.5021 24.5753C15.0308 24.7189 15.5445 24.8515 16.0472 24.9763L15.255 28.1498L17.1945 28.6332L17.9971 25.4166C21.3043 26.0424 23.7917 25.79 24.8374 22.7993C25.6809 20.3909 24.796 19.0016 23.0559 18.0952C24.3231 17.8018 25.2776 16.9683 25.5323 15.2465H25.5329ZM21.101 21.4603C20.5504 23.6708 17.0897 22.7562 15.5077 22.3381L15.5074 22.338C15.3658 22.3006 15.2393 22.2672 15.1313 22.2403L16.1963 17.9709C16.3284 18.0039 16.4898 18.0401 16.6727 18.0811L16.6727 18.0811C18.3094 18.4484 21.6635 19.201 21.1016 21.4603H21.101ZM17.0017 16.0999C18.3218 16.4521 21.1991 17.2197 21.7004 15.2117C22.2129 13.1574 19.4149 12.5382 18.0484 12.2358C17.8948 12.2018 17.7593 12.1718 17.6486 12.1442L16.683 16.0165C16.7744 16.0393 16.8816 16.0679 17.0017 16.0999Z" fill="#F7931A"/>
</svg>
